{"title":"The.Matrix.Revolutions.2003.720p.BRRip.x264.ogg.mkv-anoXmous","uid":6689872,"size":731357171,"categoryP":"video","categoryS":"hd___movies","magnet":"?xt=urn:btih:db1d0bb0aa2136d187c7d5f9666ec03df712f1b4&amp;dn=The.Matrix.Revolutions.2003.720p.BRRip.x264.ogg.mkv-anoXmous&amp;tr=udp%3A%2F%2Ftracker.openbittorrent.com%3A80&amp;tr=udp%3A%2F%2Fopen.demonii.com%3A1337&amp;tr=udp%3A%2F%2Ftracker.coppersurfer.tk%3A6969&amp;tr=udp%3A%2F%2Fexodus.desync.com%3A6969","seeders":0,"leechers":0,"uploader":"anoXmous","files":-1,"time":1316535920,"description":"The.Matrix.Revolutions.2003.720p.BRRip.x264.ogg.mkv-anoXmous\n\nFormat                           : Matroska\nFile size                        : 697 MiB\nDuration                         : 2h 9mn\nOverall bit rate                 : 754 Kbps\nWriting application              : mkvmerge v4.9.1 ('Ich will') built on Jul 11 2011 23:53:15\nWriting library                  : libebml v1.2.1 + libmatroska v1.1.1\n\nVideo\nID                               : 1\nFormat                           : AVC\nFormat/Info                      : Advanced Video Codec\nFormat profile                   : &lt;a class=&quot;__cf_email__&quot; href=&quot;/cdn-cgi/l/email-protection&quot; data-cfemail=&quot;1159787679515d253f20&quot;&gt;[email&amp;#160;protected]&lt;/a&gt;&lt;script data-cfhash='f9e31' type=&quot;text/javascript&quot;&gt;\n/* &lt;![CDATA[ */!function(){try{var t=&quot;currentScript&quot;in document?document.currentScript:function(){for(var t=document.getElementsByTagName(&quot;script&quot;),e=t.length;e--;)if(t[e].getAttribute(&quot;data-cfhash&quot;))return t[e]}();if(t&amp;&amp;t.previousSibling){var e,r,n,i,c=t.previousSibling,a=c.getAttribute(&quot;data-cfemail&quot;);if(a){for(e=&quot;&quot;,r=parseInt(a.substr(0,2),16),n=2;a.length-n;n+=2)i=parseInt(a.substr(n,2),16)^r,e+=String.fromCharCode(i);e=document.createTextNode(e),c.parentNode.replaceChild(e,c)}t.parentNode.removeChild(t);}}catch(u){}}()/* ]]&gt; */&lt;/script&gt;\nFormat settings, CABAC           : Yes\nFormat settings, ReFrames        : 4 frames\nCodec ID                         : V_MPEG4/ISO/AVC\nDuration                         : 2h 9mn\nBit rate                         : 692 Kbps\nWidth                            : 1 280 pixels\nHeight                           : 720 pixels\nDisplay aspect ratio             : 16:9\nFrame rate                       : 23.976 fps\nColor space                      : YUV\nChroma subsampling               : 4:2:0\nBit depth                        : 8 bits\nScan type                        : Progressive\nBits/(Pixel*Frame)               : 0.031\nStream size                      : 624 MiB (90%)\nWriting library                  : x264 core 116 r2074 2641b9e\n\n\nAudio\nID                               : 2\nFormat                           : Vorbis\nFormat settings, Floor           : 1\nCodec ID                         : A_VORBIS\nDuration                         : 2h 9mn\nBit rate mode                    : Constant\nBit rate                         : 64.0 Kbps\nChannel(s)                       : 2 channels\nSampling rate                    : 48.0 KHz\nCompression mode                 : Lossy\nStream size                      : 59.2 MiB (8%)\nWriting library                  : aoTuV 20110424 (UTC 2011-04-24)\nLanguage                         : English\n\nText\nID                               : 3\nFormat                           : UTF-8\nCodec ID                         : S_TEXT/UTF8\nCodec ID/Info                    : UTF-8 Plain Text\nLanguage                         : Swedish\n &lt;a href=&quot;\nhttp://www.imdb.com/title/tt0242653/&quot; rel=&quot;nofollow&quot; target=&quot;_NEW&quot;&gt;\nhttp://www.imdb.com/title/tt0242653/&lt;/a&gt;\n\n\n\n\n","torrent":{"xt":"urn:btih:db1d0bb0aa2136d187c7d5f9666ec03df712f1b4","amp;dn":"The.Matrix.Revolutions.2003.720p.BRRip.x264.ogg.mkv-anoXmous","amp;tr":["udp%3A%2F%2Ftracker.openbittorrent.com%3A80","udp%3A%2F%2Fopen.demonii.com%3A1337","udp%3A%2F%2Ftracker.coppersurfer.tk%3A6969","udp%3A%2F%2Fexodus.desync.com%3A6969"],"infoHash":"db1d0bb0aa2136d187c7d5f9666ec03df712f1b4","infoHashBuffer":{"type":"Buffer","data":[219,29,11,176,170,33,54,209,135,199,213,249,102,110,192,61,247,18,241,180]},"announce":[],"urlList":[]}}